<svg width="36" height="36" viewBox="0 0 36 36" fill="none" xmlns="http://www.w3.org/2000/svg">
<path fill-rule="evenodd" clip-rule="evenodd" d="M28.3431 10.9286L34.7071 17.2926C35.0976 17.6831 35.0976 18.3163 34.7071 18.7068L28.3431 25.0708C27.9526 25.4613 27.3195 25.4613 26.9289 25.0708C26.5384 24.6802 26.5384 24.0471 26.9289 23.6566L31.5858 18.9997H22C21.4477 18.9997 21 18.552 21 17.9997C21 17.4474 21.4477 16.9997 22 16.9997H31.5858L26.9289 12.3428C26.5384 11.9523 26.5384 11.3192 26.9289 10.9286C27.3195 10.5381 27.9526 10.5381 28.3431 10.9286Z" fill="black"/>
<path fill-rule="evenodd" clip-rule="evenodd" d="M7.65685 25.0714L1.29289 18.7074C0.902369 18.3169 0.902369 17.6837 1.29289 17.2932L7.65685 10.9292C8.04738 10.5387 8.68054 10.5387 9.07107 10.9292C9.46159 11.3198 9.46159 11.9529 9.07107 12.3434L4.41421 17.0003H14C14.5523 17.0003 15 17.448 15 18.0003C15 18.5526 14.5523 19.0003 14 19.0003H4.41421L9.07107 23.6572C9.46159 24.0477 9.46159 24.6808 9.07107 25.0714C8.68054 25.4619 8.04738 25.4619 7.65685 25.0714Z" fill="black"/>
<path fill-rule="evenodd" clip-rule="evenodd" d="M18 5C18.5523 5 19 5.44772 19 6V30C19 30.5523 18.5523 31 18 31C17.4477 31 17 30.5523 17 30V6C17 5.44772 17.4477 5 18 5Z" fill="black"/>
</svg>
