<svg width="240" height="24" viewBox="0 0 240 24" fill="none" xmlns="http://www.w3.org/2000/svg">
<path d="M18.7219 0.034183L10.9383 14.7L10.9383 23.9338L7.81794 23.9338L7.81794 14.7L0 0.0341797L3.46321 0.0341803L9.36096 11.9226L15.2587 0.0341824L18.7219 0.034183Z" fill="white"/>
<path d="M53.0768 23.9339L49.9565 23.9339L37.4066 4.90336L37.4066 23.9339L34.2863 23.9339L34.2863 0L37.4066 5.45574e-07L49.9565 18.9962L49.9565 2.73986e-06L53.0768 3.28544e-06L53.0768 23.9339Z" fill="white"/>
<path d="M84.8459 0.0341825L84.8459 2.57159L78.3309 2.57158L78.3309 23.9338L75.2106 23.9338L75.2106 2.57158L68.6614 2.57158L68.6614 0.0341797L84.8459 0.0341825Z" fill="white"/>
<path d="M102.877 2.57169L102.877 10.5611L111.586 10.5611L111.586 13.1328L102.877 13.1328L102.877 21.3622L112.615 21.3622L112.615 23.9339L99.7563 23.9339L99.7563 0L112.615 2.24825e-06L112.615 2.57169L102.877 2.57169Z" fill="white"/>
<path d="M140.915 23.9338L135.223 14.1613L128.331 14.1566L128.331 11.6565L136.046 11.6582C137.738 11.6582 139.006 11.2468 139.852 10.4238C140.698 9.57802 141.121 8.4579 141.121 7.06348C141.121 5.64619 140.698 4.54893 139.852 3.77171C139.029 2.99449 137.76 2.60587 136.046 2.60587L131.451 2.60587L131.451 8.67004L128.331 8.67004L128.331 0.0341797L136.046 0.034181C137.852 0.0341814 139.372 0.342786 140.606 0.959992C141.864 1.5772 142.801 2.41157 143.418 3.46311C144.035 4.51464 144.344 5.71477 144.344 7.06348C144.344 8.70936 143.864 10.1609 142.904 11.4182C141.967 12.6755 140.549 13.5099 138.652 13.9213L144.653 23.9338L140.915 23.9338Z" fill="white"/>
<path d="M128.331 17.0173L128.331 23.9338L131.451 23.9338L131.451 17.0173L128.331 17.0173Z" fill="white"/>
<path d="M175.519 0.034183L167.735 14.7L167.735 23.9338L164.615 23.9338L164.615 14.7L156.797 0.0341797L160.26 0.0341803L166.158 11.9226L172.055 0.0341824L175.519 0.034183Z" fill="white"/>
<path d="M197.982 23.9338C195.812 23.9338 193.831 23.4303 192.041 22.4233C190.251 21.3939 188.83 19.9729 187.778 18.1603C186.749 16.3253 186.234 14.2665 186.234 11.984C186.234 9.70144 186.749 7.65386 187.778 5.84125C188.83 4.00626 190.251 2.58526 192.041 1.57826C193.831 0.548873 195.812 0.0341814 197.982 0.0341817C200.175 0.0341821 202.167 0.548875 203.957 1.57826C205.747 2.58527 207.157 3.99508 208.187 5.80769C209.216 7.6203 209.731 9.67907 209.731 11.984C209.731 14.2889 209.216 16.3477 208.187 18.1603C207.157 19.9729 205.747 21.3939 203.957 22.4233C202.167 23.4303 200.175 23.9338 197.982 23.9338ZM197.982 21.282C199.616 21.282 201.082 20.9016 202.38 20.1407C203.7 19.3799 204.729 18.2946 205.468 16.8848C206.229 15.475 206.609 13.8414 206.609 11.984C206.609 10.1042 206.229 8.47066 205.468 7.08323C204.729 5.67342 203.711 4.58809 202.413 3.82724C201.115 3.06639 199.638 2.68597 197.982 2.68597C196.326 2.68597 194.849 3.06639 193.551 3.82724C192.254 4.58809 191.224 5.67342 190.463 7.08323C189.725 8.47066 189.356 10.1042 189.356 11.984C189.356 13.8414 189.725 15.4749 190.463 16.8848C191.224 18.2946 192.254 19.3799 193.551 20.1407C194.872 20.9016 196.349 21.282 197.982 21.282Z" fill="#D8B865"/>
<path d="M235.679 23.9338L229.987 14.1613L226.215 14.1613L226.215 23.9338L223.095 23.9338L223.095 0.0341797L230.81 0.034181C232.616 0.0341814 234.136 0.342785 235.37 0.959991C236.628 1.5772 237.565 2.41157 238.182 3.46311C238.799 4.51464 239.108 5.71477 239.108 7.06348C239.108 8.70936 238.628 10.1609 237.668 11.4182C236.731 12.6755 235.313 13.5099 233.416 13.9213L239.417 23.9338L235.679 23.9338ZM226.215 11.6582L230.81 11.6582C232.502 11.6582 233.77 11.2468 234.616 10.4238C235.462 9.57802 235.885 8.4579 235.885 7.06348C235.885 5.64619 235.462 4.54893 234.616 3.77171C233.793 2.99449 232.524 2.60587 230.81 2.60587L226.215 2.60587L226.215 11.6582Z" fill="#D8B865"/>
</svg>
